<svg width="420" height="313" viewBox="0 0 420 313" fill="none" xmlns="http://www.w3.org/2000/svg">
<mask id="mask0_857_18074" style="mask-type:alpha" maskUnits="userSpaceOnUse" x="0" y="0" width="420" height="313">
<rect x="420" y="313" width="420" height="313" rx="10" transform="rotate(-180 420 313)" fill="#D9D9D9"/>
</mask>
<g mask="url(#mask0_857_18074)">
<mask id="mask1_857_18074" style="mask-type:luminance" maskUnits="userSpaceOnUse" x="-33" y="-191" width="526" height="505">
<path d="M492.917 303.694L492.917 -180.098C492.917 -185.621 488.44 -190.098 482.917 -190.098L-22.6661 -190.098C-28.189 -190.098 -32.6661 -185.621 -32.6661 -180.098L-32.6661 303.694C-32.6661 309.216 -28.189 313.694 -22.6661 313.694L482.917 313.694C488.44 313.694 492.917 309.216 492.917 303.694Z" fill="white"/>
</mask>
<g mask="url(#mask1_857_18074)">
<g filter="url(#filter0_f_857_18074)">
<path d="M461.938 491.66L461.938 92.0703C461.938 86.5475 457.461 82.0703 451.938 82.0703L158.847 82.0703C153.324 82.0703 148.847 86.5474 148.847 92.0703L148.847 491.66C148.847 497.183 153.324 501.66 158.847 501.66L451.938 501.66C457.461 501.66 461.938 497.183 461.938 491.66Z" fill="#A180FF"/>
<path d="M473.437 135.028L473.437 -198.583C473.437 -204.106 468.96 -208.583 463.437 -208.583L91.1693 -208.583C85.6465 -208.583 81.1693 -204.106 81.1693 -198.583L81.1693 135.028C81.1693 140.551 85.6465 145.028 91.1693 145.028L463.437 145.028C468.96 145.028 473.437 140.551 473.437 135.028Z" fill="#1C102F"/>
<path d="M400.174 297.174L400.174 -199.013C400.174 -204.536 395.697 -209.013 390.174 -209.013L126.979 -209.013C121.456 -209.013 116.979 -204.536 116.979 -199.013L116.979 297.174C116.979 302.696 121.456 307.174 126.979 307.174L390.174 307.174C395.697 307.174 400.174 302.696 400.174 297.174Z" fill="#1C102F"/>
</g>
<g filter="url(#filter1_f_857_18074)">
<path d="M-66.4924 -139.738L-66.4924 259.852C-66.4924 265.374 -62.0153 269.852 -56.4924 269.852L236.599 269.852C242.122 269.852 246.599 265.374 246.599 259.852L246.599 -139.738C246.599 -145.261 242.122 -149.738 236.599 -149.738L-56.4924 -149.738C-62.0153 -149.738 -66.4924 -145.261 -66.4924 -139.738Z" fill="#A180FF"/>
<path d="M-77.9919 216.894L-77.9919 550.505C-77.9919 556.028 -73.5148 560.505 -67.9919 560.505L304.276 560.505C309.799 560.505 314.276 556.028 314.276 550.505L314.276 216.894C314.276 211.371 309.799 206.894 304.276 206.894L-67.9919 206.894C-73.5148 206.894 -77.9919 211.371 -77.9919 216.894Z" fill="#1C102F"/>
<path d="M-4.72887 54.7493L-4.72888 550.936C-4.72888 556.458 -0.251733 560.936 5.27111 560.936L268.466 560.936C273.989 560.936 278.466 556.458 278.466 550.936L278.466 54.7494C278.466 49.2265 273.989 44.7494 268.466 44.7494L5.27113 44.7493C-0.251719 44.7493 -4.72887 49.2265 -4.72887 54.7493Z" fill="#1C102F"/>
</g>
</g>
</g>
<defs>
<filter id="filter0_f_857_18074" x="-168.831" y="-459.013" width="892.268" height="1210.67" filterUnits="userSpaceOnUse" color-interpolation-filters="sRGB">
<feFlood flood-opacity="0" result="BackgroundImageFix"/>
<feBlend mode="normal" in="SourceGraphic" in2="BackgroundImageFix" result="shape"/>
<feGaussianBlur stdDeviation="125" result="effect1_foregroundBlur_857_18074"/>
</filter>
<filter id="filter1_f_857_18074" x="-327.992" y="-399.738" width="892.268" height="1210.67" filterUnits="userSpaceOnUse" color-interpolation-filters="sRGB">
<feFlood flood-opacity="0" result="BackgroundImageFix"/>
<feBlend mode="normal" in="SourceGraphic" in2="BackgroundImageFix" result="shape"/>
<feGaussianBlur stdDeviation="125" result="effect1_foregroundBlur_857_18074"/>
</filter>
</defs>
</svg>
